<?xml version="1.0" encoding="UTF-8"?>
<svg xmlns="http://www.w3.org/2000/svg" xmlns:xlink="http://www.w3.org/1999/xlink" viewBox="0 0 300 300" width="300px" height="300px">
<g id="surface20911821">
<path style=" stroke:none;fill-rule:nonzero;fill:rgb(100%,100%,100%);fill-opacity:1;" d="M 96 18 C 52.996094 18 18 52.996094 18 96 L 18 204 C 18 247.003906 52.996094 282 96 282 L 204 282 C 247.003906 282 282 247.003906 282 204 L 282 96 C 282 52.996094 247.003906 18 204 18 Z M 96 30 L 204 30 C 240.519531 30 270 59.480469 270 96 L 270 204 C 270 240.519531 240.519531 270 204 270 L 96 270 C 59.480469 270 30 240.519531 30 204 L 30 96 C 30 59.480469 59.480469 30 96 30 Z M 222 66 C 215.371094 66 210 71.371094 210 78 C 210 84.628906 215.371094 90 222 90 C 228.628906 90 234 84.628906 234 78 C 234 71.371094 228.628906 66 222 66 Z M 150 84 C 113.621094 84 84 113.621094 84 150 C 84 186.378906 113.621094 216 150 216 C 186.378906 216 216 186.378906 216 150 C 216 113.621094 186.378906 84 150 84 Z M 150 96 C 179.894531 96 204 120.105469 204 150 C 204 179.894531 179.894531 204 150 204 C 120.105469 204 96 179.894531 96 150 C 96 120.105469 120.105469 96 150 96 Z M 150 96 "/>
</g>
</svg>
