<?xml version="1.0" encoding="UTF-8"?>
<svg xmlns="http://www.w3.org/2000/svg" xmlns:xlink="http://www.w3.org/1999/xlink" viewBox="0 0 300 300" width="300px" height="300px">
<g id="surface3486922">
<path style=" stroke:none;fill-rule:nonzero;fill:rgb(100%,100%,100%);fill-opacity:1;" d="M 80.039062 24.78125 L 121.558594 96 L 24 96 L 24 90 C 24 56.878906 48.300781 29.519531 80.039062 24.78125 Z M 199.558594 96 L 135.421875 96 L 93.421875 24 L 157.558594 24 Z M 276 90 L 276 96 L 213.421875 96 L 171.421875 24 L 210 24 C 246.480469 24 276 53.519531 276 90 Z M 24 108 L 24 210 C 24 246.480469 53.519531 276 90 276 L 210 276 C 246.480469 276 276 246.480469 276 210 L 276 108 Z M 186 193.140625 L 138.058594 220.378906 C 130.078125 224.941406 120 219.300781 120 210.238281 L 120 155.761719 C 120 146.699219 130.078125 141.058594 138.058594 145.621094 L 186 172.859375 C 193.980469 177.359375 193.980469 188.640625 186 193.140625 Z M 186 193.140625 "/>
</g>
</svg>
