<?xml version="1.0" encoding="UTF-8"?>
<svg xmlns="http://www.w3.org/2000/svg" xmlns:xlink="http://www.w3.org/1999/xlink" viewBox="0 0 300 300" width="300px" height="300px">
<g id="surface3481495">
<path style=" stroke:none;fill-rule:nonzero;fill:rgb(100%,100%,100%);fill-opacity:1;" d="M 90 24 C 53.621094 24 24 53.621094 24 90 L 24 210 C 24 246.378906 53.621094 276 90 276 L 210 276 C 246.378906 276 276 246.378906 276 210 L 276 90 C 276 53.621094 246.378906 24 210 24 Z M 100.441406 36 L 164.554688 36 L 199.558594 96 L 135.445312 96 Z M 178.441406 36 L 210 36 C 239.894531 36 264 60.105469 264 90 L 264 96 L 213.445312 96 Z M 86.917969 36.621094 L 121.558594 96 L 36 96 L 36 90 C 36 61.199219 58.550781 38.296875 86.917969 36.621094 Z M 36 108 L 264 108 L 264 210 C 264 239.894531 239.894531 264 210 264 L 90 264 C 60.105469 264 36 239.894531 36 210 Z M 131.871094 138.082031 C 122.609375 138.300781 114 145.617188 114 155.742188 L 114 210.246094 C 114 223.75 129.3125 232.28125 141.058594 225.585938 L 188.988281 198.339844 C 200.65625 191.710938 200.65625 174.265625 188.988281 167.636719 L 141.058594 140.390625 L 141.046875 140.390625 C 138.109375 138.722656 134.957031 138.007812 131.871094 138.082031 Z M 131.894531 149.917969 C 132.953125 149.929688 134.054688 150.210938 135.128906 150.820312 L 183.070312 178.066406 C 187.324219 180.484375 187.324219 185.492188 183.070312 187.910156 L 135.117188 215.15625 C 130.816406 217.605469 126 214.851562 126 210.246094 L 126 155.742188 C 126 153.4375 127.207031 151.605469 128.953125 150.644531 C 129.824219 150.164062 130.835938 149.90625 131.894531 149.917969 Z M 131.894531 149.917969 "/>
</g>
</svg>
